<?xml version="1.0" encoding="UTF-8"?>
<svg version="1.1" xmlns="http://www.w3.org/2000/svg" width="400" height="163">
<path d="M0 0 C14 0 14 0 17.38671875 2.5703125 C18.58203125 4.265625 18.58203125 4.265625 19.6875 6.125 C20.57558342 7.42012165 21.4649431 8.71436891 22.35546875 10.0078125 C22.79036621 10.67329102 23.22526367 11.33876953 23.67333984 12.02441406 C25.77555059 15.15490529 28.13945659 18.06256464 30.5 21 C31.41807629 22.16555773 32.33474146 23.33222832 33.25 24.5 C33.930625 25.36625 33.930625 25.36625 34.625 26.25 C38.75 31.5 38.75 31.5 40.12475586 33.24975586 C41.04215009 34.4173041 41.95963067 35.58478449 42.87719727 36.75219727 C45.15844245 39.6548279 47.43821214 42.55859274 49.71484375 45.46484375 C50.62227875 46.62248762 51.52983119 47.78003944 52.4375 48.9375 C53.11534546 49.80205811 53.11534546 49.80205811 53.80688477 50.68408203 C56.16656435 53.68761406 58.54024082 56.67869871 60.9375 59.65234375 C68.17698354 68.6357133 75.06615014 77.75486686 82 87 C82.33 58.29 82.66 29.58 83 0 C87.29 0 91.58 0 96 0 C96 37.29 96 74.58 96 113 C85 113 85 113 81.6875 110.2109375 C80.75629871 108.95781473 79.86158218 107.67697108 79 106.375 C77.99114521 104.98809223 76.98202468 103.60137774 75.97265625 102.21484375 C75.47781738 101.50827637 74.98297852 100.80170898 74.47314453 100.07373047 C72.24360528 96.9352309 69.83964064 93.94446534 67.4375 90.9375 C66.52866793 89.7809526 65.62111468 88.62339915 64.71484375 87.46484375 C61.98009613 83.97378134 59.24041787 80.48661214 56.5 77 C55.58331177 75.83335027 54.6666451 74.66668361 53.75 73.5 C53.069375 72.63375 53.069375 72.63375 52.375 71.75 C48.25 66.5 48.25 66.5 46.87524414 64.75024414 C45.95784991 63.5826959 45.04036933 62.41521551 44.12280273 61.24780273 C41.84155755 58.3451721 39.56178786 55.44140726 37.28515625 52.53515625 C31.86169247 45.616034 26.40196621 38.72838829 20.88305664 31.88500977 C18.8125229 29.3094848 16.83440045 26.75160067 15 24 C14.67 53.37 14.34 82.74 14 113 C9.38 113 4.76 113 0 113 C0 75.71 0 38.42 0 0 Z " fill="#752E23" transform="translate(17,4)"/>
<path d="M0 0 C64.73029046 0 64.73029046 0 76.93359375 11.8828125 C84.5183196 19.92482951 86 28.0764255 86 39 C85.12094018 48.76580514 81.52065717 56.36661597 74.40625 63.109375 C65.06878348 70.44595584 54.56581429 73.34834729 42.90625 73.1953125 C41.79781738 73.19229126 41.79781738 73.19229126 40.66699219 73.18920898 C37.944597 73.17885874 35.2222913 73.15093751 32.5 73.125 C23.3425 73.063125 23.3425 73.063125 14 73 C14 86.2 14 99.4 14 113 C9.38 113 4.76 113 0 113 C0 75.71 0 38.42 0 0 Z M14 12 C14 28.17 14 44.34 14 61 C18.8675 61.061875 23.735 61.12375 28.75 61.1875 C30.25916992 61.21481201 31.76833984 61.24212402 33.32324219 61.27026367 C44.71372827 61.33971786 55.83474483 60.43428688 65 53 C69.60160525 48.39839475 71.67786691 42.95288668 72.375 36.5625 C71.59457592 29.1484712 69.49130336 23.24724544 64 18 C53.68950471 11.02660698 41.29036486 11.73765059 29.375 11.875 C21.764375 11.936875 21.764375 11.936875 14 12 Z " fill="#752E24" transform="translate(171,4)"/>
<path d="M0 0 C0.53625 0.4228125 1.0725 0.845625 1.625 1.28125 C-0.15445087 5.32545651 -2.77029673 8.74203487 -5.375 12.28125 C-8.60958297 11.1693621 -11.29413511 9.72344429 -14.125 7.84375 C-22.87029007 2.25006446 -33.10177727 0.3993619 -43.375 1.28125 C-49.18946481 2.61526487 -55.38757368 4.51339529 -58.9765625 9.51171875 C-61.39291646 14.29717952 -61.08511773 19.05478354 -60.375 24.28125 C-56.90346615 31.10033435 -50.27396857 32.7535632 -43.375 35.28125 C-39.09443091 36.54455581 -34.77313546 37.6002819 -30.4375 38.65625 C-16.09372087 42.3528909 -4.62100797 46.28763725 3.5 59.28125 C6.20457119 66.4394564 5.90623101 76.17070977 3.0625 83.21875 C-2.29921647 93.13885957 -9.41050132 97.74870503 -19.8125 101.53125 C-38.14352852 105.3904139 -55.80749469 101.72475061 -71.7265625 92.03125 C-74.84309739 89.97194671 -77.62364044 87.8033296 -80.375 85.28125 C-79.01129701 82.28904732 -77.42591917 79.99098471 -75.25 77.53125 C-74.71117187 76.91765625 -74.17234375 76.3040625 -73.6171875 75.671875 C-73.00230469 74.98351562 -73.00230469 74.98351562 -72.375 74.28125 C-71.818125 74.65636719 -71.26125 75.03148438 -70.6875 75.41796875 C-69.08645208 76.49164446 -67.48205016 77.56032927 -65.875 78.625 C-64.34802383 79.63662171 -62.82588029 80.6556498 -61.3125 81.6875 C-50.74577528 88.6751728 -38.0789583 91.00730421 -25.5859375 88.78515625 C-19.58429518 87.18048753 -14.63969744 84.92819381 -11.2421875 79.45703125 C-9.12698459 74.14996808 -9.65545531 68.13150778 -11.6875 62.90625 C-18.66047284 56.09543931 -28.98862724 54.13623863 -38.1875 51.90625 C-52.99632717 48.11265979 -66.10624679 44.16094288 -74.375 30.28125 C-76.8505459 22.93713049 -76.62289149 12.88226109 -73.4375 5.84375 C-68.20683397 -3.01154658 -60.04006922 -8.66092061 -50.20703125 -11.30078125 C-31.97814805 -13.99111298 -15.07027557 -10.90612048 0 0 Z " fill="#752D23" transform="translate(377.375,14.71875)"/>
<path d="M0 0 C4.84661954 0.26686537 7.48651707 2.83420949 10.8125 6.0625 C11.56563477 6.77116211 11.56563477 6.77116211 12.33398438 7.49414062 C13.56422789 8.65408452 14.78327065 9.82588815 16 11 C16.33 7.37 16.66 3.74 17 0 C18.65 0 20.3 0 22 0 C22.66 1.65 23.32 3.3 24 5 C24.6496875 4.0409375 24.6496875 4.0409375 25.3125 3.0625 C27 1 27 1 30 0 C32.80519407 -0.14854388 35.56922127 -0.23104204 38.375 -0.25 C39.13039062 -0.270625 39.88578125 -0.29125 40.6640625 -0.3125 C45.25179055 -0.34458201 48.32784853 -0.05324954 52 3 C53.99299003 5.88599149 54.26294896 8.04432378 53.9375 11.5 C53.88464844 12.2528125 53.83179688 13.005625 53.77734375 13.78125 C52.59297782 17.16175174 51.08535057 18.20656475 48 20 C44.98168854 20.54027666 42.05822489 20.51445209 39 20.4375 C38.2059375 20.44458984 37.411875 20.45167969 36.59375 20.45898438 C31.93429786 20.40850698 28.77409388 20.01485234 25 17 C24.67 16.34 24.34 15.68 24 15 C23.731875 15.804375 23.46375 16.60875 23.1875 17.4375 C22.795625 18.283125 22.40375 19.12875 22 20 C21.01 20.33 20.02 20.66 19 21 C16.40625 19.234375 16.40625 19.234375 13.5 16.75 C12.5409375 15.94046875 11.581875 15.1309375 10.59375 14.296875 C8.67128732 12.59445323 6.81577843 10.81577843 5 9 C4.67 12.63 4.34 16.26 4 20 C2.35 20 0.7 20 -1 20 C-1.02888514 16.85418577 -1.04675923 13.70840531 -1.0625 10.5625 C-1.07087891 9.66466797 -1.07925781 8.76683594 -1.08789062 7.84179688 C-1.09111328 6.98779297 -1.09433594 6.13378906 -1.09765625 5.25390625 C-1.10551147 4.06776733 -1.10551147 4.06776733 -1.11352539 2.85766602 C-1 1 -1 1 0 0 Z M30 6 C28.80161791 8.32854463 28.80161791 8.32854463 28 11 C28.99 12.485 28.99 12.485 30 14 C32.95064148 14.2208564 35.68368231 14.28060989 38.625 14.1875 C39.42679688 14.17396484 40.22859375 14.16042969 41.0546875 14.14648438 C43.03674378 14.11109051 45.01845551 14.05728234 47 14 C48.19838209 11.67145537 48.19838209 11.67145537 49 9 C48.34 8.01 47.68 7.02 47 6 C44.04935852 5.7791436 41.31631769 5.71939011 38.375 5.8125 C37.17230469 5.83280273 37.17230469 5.83280273 35.9453125 5.85351562 C33.96325622 5.88890949 31.98154449 5.94271766 30 6 Z " fill="#752E23" transform="translate(51,136)"/>
<path d="M0 0 C1.03125 0.01804688 2.0625 0.03609375 3.125 0.0546875 C5.66761064 0.10177288 8.20833162 0.1675195 10.75 0.25 C10.75 2.23 10.75 4.21 10.75 6.25 C9.76 6.745 9.76 6.745 8.75 7.25 C9.08 7.58 9.41 7.91 9.75 8.25 C9.75 10.25 9.75 12.25 9.75 14.25 C10.08 14.58 10.41 14.91 10.75 15.25 C10.79063832 16.91617115 10.792721 18.58388095 10.75 20.25 C7.16694008 20.36627503 3.58436583 20.4372736 0 20.5 C-1.01578125 20.53351563 -2.0315625 20.56703125 -3.078125 20.6015625 C-10.51802885 20.69945597 -10.51802885 20.69945597 -13.921875 18.609375 C-15.59088372 15.6444301 -15.78395539 13.6455391 -15.75 10.25 C-15.7603125 9.21875 -15.770625 8.1875 -15.78125 7.125 C-15.25 4.25 -15.25 4.25 -13.921875 1.890625 C-9.54781433 -0.79520173 -5.01428872 -0.16544607 0 0 Z " fill="#762E24" transform="translate(144.25,135.75)"/>
<path d="M0 0 C0.78955078 -0.01095703 1.57910156 -0.02191406 2.39257812 -0.03320312 C6.40816894 0.01728628 8.47428922 0.26718048 11.93359375 2.47265625 C14.74884802 5.40864267 15.0924381 7.03396065 15.125 11 C15.13917969 11.78246094 15.15335938 12.56492188 15.16796875 13.37109375 C14.9375 15.5625 14.9375 15.5625 12.9375 18.5625 C13.9275 18.5625 14.9175 18.5625 15.9375 18.5625 C15.9375 20.2125 15.9375 21.8625 15.9375 23.5625 C10.1875 23.6875 10.1875 23.6875 7.9375 22.5625 C7.9375 21.9025 7.9375 21.2425 7.9375 20.5625 C6.18373047 20.63210937 6.18373047 20.63210937 4.39453125 20.703125 C2.8463798 20.74065594 1.29820061 20.77705469 -0.25 20.8125 C-1.01892578 20.84601563 -1.78785156 20.87953125 -2.58007812 20.9140625 C-6.60503008 20.98316039 -8.56058724 20.88005003 -12.05078125 18.671875 C-14.75601677 15.83531737 -15.28728635 14.0852915 -15.5 10.25 C-15.56058594 9.49074219 -15.62117187 8.73148438 -15.68359375 7.94921875 C-14.89999695 4.93803859 -13.40483837 3.41465471 -10.94995117 1.55053711 C-7.42195292 -0.29628852 -3.90080985 -0.1184003 0 0 Z M-10.0625 8.5625 C-9.7325 10.5425 -9.4025 12.5225 -9.0625 14.5625 C-3.1225 14.5625 2.8175 14.5625 8.9375 14.5625 C9.2675 12.5825 9.5975 10.6025 9.9375 8.5625 C7.37801001 6.00301001 5.66542805 6.30181269 2.171875 6.2890625 C1.06585938 6.30066406 1.06585938 6.30066406 -0.0625 6.3125 C-0.79984375 6.30476562 -1.5371875 6.29703125 -2.296875 6.2890625 C-6.64671903 6.15241135 -6.64671903 6.15241135 -10.0625 8.5625 Z " fill="#762D24" transform="translate(225.0625,135.4375)"/>
<path d="M0 0 C4.84661954 0.26686537 7.48651707 2.83420949 10.8125 6.0625 C11.56563477 6.77116211 11.56563477 6.77116211 12.33398438 7.49414062 C13.56422789 8.65408452 14.78327065 9.82588815 16 11 C16.33 7.37 16.66 3.74 17 0 C18.65 0 20.3 0 22 0 C22 6.6 22 13.2 22 20 C21.01 20.33 20.02 20.66 19 21 C16.40625 19.234375 16.40625 19.234375 13.5 16.75 C12.5409375 15.94046875 11.581875 15.1309375 10.59375 14.296875 C8.67128732 12.59445323 6.81577843 10.81577843 5 9 C4.67 12.63 4.34 16.26 4 20 C2.35 20 0.7 20 -1 20 C-1.02888514 16.85418577 -1.04675923 13.70840531 -1.0625 10.5625 C-1.07087891 9.66466797 -1.07925781 8.76683594 -1.08789062 7.84179688 C-1.09111328 6.98779297 -1.09433594 6.13378906 -1.09765625 5.25390625 C-1.10551147 4.06776733 -1.10551147 4.06776733 -1.11352539 2.85766602 C-1 1 -1 1 0 0 Z " fill="#752D24" transform="translate(157,136)"/>
<path d="M0 0 C1.79158489 -0.02696365 3.58328473 -0.04637917 5.375 -0.0625 C6.37273437 -0.07410156 7.37046875 -0.08570313 8.3984375 -0.09765625 C11 0 11 0 13 1 C14.11375 0.773125 15.2275 0.54625 16.375 0.3125 C20 0 20 0 22.2109375 1.55859375 C24.57787439 4.78858404 24.40839157 6.79021085 24.25 10.75 C24.21390625 11.92046875 24.1778125 13.0909375 24.140625 14.296875 C24.07101562 15.63492188 24.07101562 15.63492188 24 17 C22.68 17 21.36 17 20 17 C18.73762269 14.47524538 18.90143596 12.68799534 18.9375 9.875 C18.94652344 8.96492187 18.95554687 8.05484375 18.96484375 7.1171875 C18.97644531 6.41851562 18.98804688 5.71984375 19 5 C17.68 5 16.36 5 15 5 C14.67 8.96 14.34 12.92 14 17 C12.68 16.67 11.36 16.34 10 16 C9.67 12.7 9.34 9.4 9 6 C7.68 5.67 6.36 5.34 5 5 C5 8.63 5 12.26 5 16 C3.68 16.33 2.36 16.66 1 17 C0 16 0 16 -0.09765625 12.40234375 C-0.0909822 10.91403133 -0.07902183 9.42573568 -0.0625 7.9375 C-0.05798828 7.17888672 -0.05347656 6.42027344 -0.04882812 5.63867188 C-0.0370068 3.75908129 -0.01907078 1.87953101 0 0 Z " fill="#752E23" transform="translate(290,141)"/>
<path d="M0 0 C1.98 0 3.96 0 6 0 C6.49371094 0.92683594 6.98742187 1.85367188 7.49609375 2.80859375 C8.14313499 4.01827955 8.79027554 5.22791222 9.4375 6.4375 C9.76298828 7.04916016 10.08847656 7.66082031 10.42382812 8.29101562 C11.93715142 11.33716206 11.93715142 11.33716206 14 14 C16.31 9.38 18.62 4.76 21 0 C22.98 0 24.96 0 27 0 C25.618047 4.56044489 23.77496454 8.56637877 21.5 12.75 C20.58734375 14.44382813 20.58734375 14.44382813 19.65625 16.171875 C18 19 18 19 16 21 C13.2109375 21.21875 13.2109375 21.21875 10 20 C7.74554804 17.06411327 6.21592703 13.83085326 4.625 10.5 C4.17511719 9.60667969 3.72523437 8.71335938 3.26171875 7.79296875 C0 1.25961721 0 1.25961721 0 0 Z " fill="#752E23" transform="translate(103,136)"/>
<path d="M0 0 C1.65 0 3.3 0 5 0 C6.33912585 3.12254943 7.67030658 6.24842358 9 9.375 C9.3815625 10.26445312 9.763125 11.15390625 10.15625 12.0703125 C10.5171875 12.92109375 10.878125 13.771875 11.25 14.6484375 C11.58515625 15.43395996 11.9203125 16.21948242 12.265625 17.02880859 C13 19 13 19 13 21 C11.35 21 9.7 21 8 21 C7.835 20.360625 7.67 19.72125 7.5 19.0625 C6.218214 16.83880759 6.218214 16.83880759 4.0859375 16.51171875 C2.06424845 16.2724022 0.03158061 16.13106972 -2 16 C-2.33 17.65 -2.66 19.3 -3 21 C-4.65 20.67 -6.3 20.34 -8 20 C-5.36 13.4 -2.72 6.8 0 0 Z M2 6 C1.34 7.98 0.68 9.96 0 12 C1.65 12 3.3 12 5 12 C4.34 10.02 3.68 8.04 3 6 C2.67 6 2.34 6 2 6 Z " fill="#752E23" transform="translate(23,136)"/>
<path d="M0 0 C10 0 10 0 13.0625 1.6875 C15.25391228 4.30305659 15.91707345 5.60001162 16 9 C15.22200042 11.97054386 14.34369547 13.63175485 12.25 15.875 C9.1895511 17.40522445 7.24839716 16.81209929 4 16 C4 17.98 4 19.96 4 22 C2.68 22 1.36 22 0 22 C0 14.74 0 7.48 0 0 Z M7 4 C5.33378575 5.1645201 5.33378575 5.1645201 4 7 C4.23043864 9.65466049 4.23043864 9.65466049 5 12 C6.65 12 8.3 12 10 12 C10.33 10.02 10.66 8.04 11 6 C9.68 5.34 8.36 4.68 7 4 Z " fill="#752D23" transform="translate(317,141)"/>
<path d="M0 0 C7.59 0 15.18 0 23 0 C23 1.98 23 3.96 23 6 C20.03 6 17.06 6 14 6 C14 10.62 14 15.24 14 20 C12.35 20 10.7 20 9 20 C9 15.38 9 10.76 9 6 C7.700625 6.020625 6.40125 6.04125 5.0625 6.0625 C3.70834367 6.08399454 2.35243917 6.07148199 1 6 C0.67 5.67 0.34 5.34 0 5 C0 3.35 0 1.7 0 0 Z " fill="#752E23" transform="translate(180,136)"/>
<path d="M0 0 C1.9375 2.0625 1.9375 2.0625 3 4 C1.02 4.99 1.02 4.99 -1 6 C-1.33 5.67 -1.66 5.34 -2 5 C-4.33297433 4.95907063 -6.66705225 4.95758277 -9 5 C-9.02689216 6.47906892 -9.04634621 7.95827483 -9.0625 9.4375 C-9.07410156 10.26121094 -9.08570313 11.08492187 -9.09765625 11.93359375 C-9.23267348 13.99163938 -9.23267348 13.99163938 -8 15 C-6.00049364 15.04443347 -3.99961564 15.03920815 -2 15 C-0.68 15 0.64 15 2 15 C2 16.32 2 17.64 2 19 C-1.23093346 21.28857787 -4.17325948 21.28689519 -8.02734375 20.66015625 C-11.71704945 19.42538345 -13.09756056 17.26981779 -15 14 C-15.87317722 10.39993329 -15.82489071 7.45218403 -13.97265625 4.19140625 C-9.76112704 -1.14661102 -6.4140034 -1.48896507 0 0 Z " fill="#752E24" transform="translate(270,137)"/>
<path d="M0 0 C1.74861792 -0.10853491 3.49919241 -0.18583428 5.25 -0.25 C6.22453125 -0.29640625 7.1990625 -0.3428125 8.203125 -0.390625 C11 0 11 0 13.34375 1.625 C15.48467716 4.69500875 15.41110849 6.54450483 15.25 10.25 C15.21390625 11.32765625 15.1778125 12.4053125 15.140625 13.515625 C15.07101562 14.74539062 15.07101562 14.74539062 15 16 C13.0625 16.5625 13.0625 16.5625 11 17 C10 16 10 16 9.90234375 13.49609375 C9.91394531 12.48675781 9.92554688 11.47742188 9.9375 10.4375 C9.94652344 9.42558594 9.95554687 8.41367188 9.96484375 7.37109375 C9.97644531 6.58863281 9.98804688 5.80617187 10 5 C8.68 5.33 7.36 5.66 6 6 C5.67 9.3 5.34 12.6 5 16 C3.68 16.33 2.36 16.66 1 17 C0 16 0 16 -0.09765625 12.40234375 C-0.0909822 10.91403133 -0.07902183 9.42573568 -0.0625 7.9375 C-0.05798828 7.17888672 -0.05347656 6.42027344 -0.04882812 5.63867188 C-0.0370068 3.75908129 -0.01907078 1.87953101 0 0 Z " fill="#752D24" transform="translate(349,141)"/>
<path d="M0 0 C2.4375 1.8125 2.4375 1.8125 4 5 C4.3163533 8.69251722 4.23299662 12.30441471 4 16 C-0.38080145 17.17073142 -4.17296779 17.91351611 -8.375 15.8125 C-10 14 -10 14 -10.5625 11.5 C-10 9 -10 9 -7.6875 7.25 C-5 6 -5 6 -2 5 C-3.98 5.33 -5.96 5.66 -8 6 C-8.33 4.35 -8.66 2.7 -9 1 C-5.87139505 -0.56430248 -3.44397075 -0.35627284 0 0 Z M-5 10 C-5 10.99 -5 11.98 -5 13 C-3.68 12.67 -2.36 12.34 -1 12 C-1 11.34 -1 10.68 -1 10 C-2.32 10 -3.64 10 -5 10 Z " fill="#762E24" transform="translate(343,141)"/>
<path d="M0 0 C1.65 0 3.3 0 5 0 C5.99 2.64 6.98 5.28 8 8 C9.32 5.36 10.64 2.72 12 0 C13.32 0 14.64 0 16 0 C14.63513683 7.56878669 12.59479473 16.40520527 7 22 C3.875 22.125 3.875 22.125 1 22 C0.67 21.01 0.34 20.02 0 19 C0.33 18.34 0.66 17.68 1 17 C2.32 17 3.64 17 5 17 C4.80664062 16.35933594 4.61328125 15.71867188 4.4140625 15.05859375 C2.9059252 10.04889015 1.42282214 5.03460143 0 0 Z " fill="#752E24" transform="translate(364,141)"/>
<path d="M0 0 C2.11130276 1.61048211 2.89153752 2.5092073 3.46875 5.12109375 C3.52426701 9.23629217 3.54853806 11.30186066 0.9375 14.625 C-2.90996265 16.42593997 -4.95594856 16.19823746 -9 15 C-11.23759858 13.19548502 -11.83522338 11.90164286 -12.34765625 9.09765625 C-12.62944277 5.21767256 -12.43375156 3.53890345 -9.9375 0.4375 C-6.10852228 -1.43625505 -4.06665724 -1.12962701 0 0 Z M-5 3 C-6.66621425 4.1645201 -6.66621425 4.1645201 -8 6 C-7.76956136 8.65466049 -7.76956136 8.65466049 -7 11 C-5.35 11 -3.7 11 -2 11 C-1.67 9.02 -1.34 7.04 -1 5 C-2.32 4.34 -3.64 3.68 -5 3 Z " fill="#752D23" transform="translate(285,142)"/>
<path d="M0 0 C1.65 0 3.3 0 5 0 C5 6.6 5 13.2 5 20 C3.35 20 1.7 20 0 20 C0 13.4 0 6.8 0 0 Z " fill="#762E23" transform="translate(204,136)"/>
</svg>
