<?xml version="1.0" standalone="no"?>
<!DOCTYPE svg PUBLIC "-//W3C//DTD SVG 1.0//EN" "http://www.w3.org/TR/2001/REC-SVG-20010904/DTD/svg10.dtd">
<svg xmlns="http://www.w3.org/2000/svg" xmlns:xlink="http://www.w3.org/1999/xlink" id="body_1" width="360" height="180">

<g transform="matrix(0.18 0 0 0.18 0 0)">
	<g>
        <path d="M1835 890.4C 1829.5 888.30005 1825 885.80005 1825 885C 1825 884.1 1828.7 876.2 1829.5 875.2C 1829.6 875 1831.4 875.8 1833.4 877C 1841.2001 881.3 1849.4 878.1 1853.5 869C 1855.6 864.3 1856 866.1 1849 848.5C 1847.3 844.1 1844.4 836.7 1842.5 832C 1840.7 827.3 1837.8 819.9 1836 815.5C 1832.4 806.6 1827 792 1827 791.4C 1827 791.2 1829.9 791 1833.5 791C 1838.9 791 1840.2 791.3 1840.7 792.8C 1841 793.7 1842.2999 796.8 1843.5 799.5C 1844.7 802.3 1846.5 807 1847.5 810C 1848.5 813 1849.6 816 1850 816.5C 1850.4 817.1 1851.5 820 1852.5 823C 1853.5 826 1855.1 830.3 1856.1 832.5C 1857.1 834.7 1858.6 838.3 1859.2999 840.5C 1861.8999 848.1 1862.7999 846.9 1872.3999 822C 1874.7999 815.7 1878.4999 806.1 1880.5999 800.8L1880.5999 800.8L1884.2998 791L1890.6998 791C 1896.7998 791 1897.9999 791.6 1896.0999 793.5C 1895.5999 794.1 1894.1998 797.7 1892.9999 801.5C 1891.6998 805.4 1890.3999 809 1889.9999 809.5C 1889.4999 810.1 1887.9999 813.7 1886.5999 817.5C 1885.0999 821.4 1883.5999 825.4 1882.9999 826.5C 1881.5999 829.5 1872.9999 851.8 1872.9999 852.5C 1872.9999 852.8 1872.0999 854.9 1870.9999 857.3C 1869.8999 859.6 1867.9999 864.39996 1866.6998 868C 1861.2998 883.3 1854.1998 889.9 1842.6998 890.6C 1839.2998 890.8 1835.7998 890.69995 1834.9999 890.39996L1834.9999 890.39996L1835 890.4z" stroke="none" fill="#762E24" fill-rule="nonzero" />
        <path d="M1588 840.5L1588 791L1594.5 791L1601 791L1601 795C 1601 799.9 1602.6 800.2 1607.4 796C 1612.4 791.6 1622.2001 789.3 1630 790.8C 1641.6 792.89996 1648.8 798.3 1654.2 809C 1657.3999 815.3 1657.5 815.9 1657.5 827C 1657.4 838 1657.3 838.8 1654.1 844.9C 1648.2999 856.2 1639.2999 862.80005 1628.2 863.7C 1619.7999 864.4 1614.3999 862.9 1608.3999 858.4C 1601.2 852.9 1600.9999 853.30005 1600.9999 873L1600.9999 873L1600.9999 890L1594.4999 890L1587.9999 890L1587.9999 840.5L1588 840.5zM1631.3 849.6C 1640 845.89996 1644.7001 836.19995 1643.7001 823.89996C 1643.0001 815.99994 1641.1001 811.69995 1636.3 807.3C 1629.6001 801.3 1617.9 800.89996 1610.6001 806.5C 1599.4001 815 1598.3 834.6 1608.5001 845.6C 1613.2001 850.69995 1624.3002 852.6 1631.3002 849.6z" stroke="none" fill="#762E24" fill-rule="nonzero" />
        <path d="M1184 872.1C 1177.4 870.5 1168.3 863.6 1165.6 858.3L1165.6 858.3L1163.9 855L1125.5 855C 1089.3 855 1079.1 854.4 1077 852C 1076.7 851.7 1074.8 850.4 1072.8 849.1C 1068 846.19995 1060.7001 838.1 1058.1001 832.69995C 1056.9001 830.2999 1055.0001 824.6 1053.8 819.89996C 1051.7001 811.69995 1051.7001 811.3 1053.4 802.99994C 1057.3 783.0999 1068 770.89996 1086 765.49994C 1090.7 764.0999 1096.3 763.99994 1126 764.2999C 1149.3 764.49994 1161.9 764.99994 1164.8 765.7999C 1177.1001 769.2999 1186.6001 777.3999 1192.5 789.3999C 1195.7 795.8999 1196.3 798.0999 1196.8 805.8999C 1197.1001 811.1999 1196.8 817.4999 1196 821.1999C 1194.7 828.1999 1189 838.79987 1184.1 843.3999C 1180.4 846.8999 1180.2 849.1999 1183.2 851.9999C 1185 853.6999 1186.7 853.9999 1193.2 853.9999L1193.2 853.9999L1201 853.9999L1201 863.4999L1201 872.9999L1193.8 872.8999C 1189.8 872.7999 1185.4 872.4999 1184 872.0999L1184 872.0999L1184 872.1zM1163.8 836.1C 1165.5 835.6 1167.8 834.39996 1168.8 833.6C 1177.7001 825.39996 1180 820.69995 1180 810.3C 1180 800.2 1175 791.3 1167 787.1C 1163.1 785.1 1161.6 785 1124.6 785L1124.6 785L1086.2999 785L1082.2 787.8C 1077.2 791.1 1073.2999 796.1 1072 801C 1070.3 807.1 1070.8 818 1073.1 822.9C 1075.4 828.2 1082.1 834.7 1086.4 835.9C 1090.5 837.10004 1159.6 837.2 1163.8 836.10004z" stroke="none" fill="#762E24" fill-rule="nonzero" />
        <path d="M1313.3 863.1C 1304.2001 860.8 1294.4 853.8 1288.3 845.6C 1272.7001 824.1 1278.2001 787.5 1299 774.39996C 1308.5 768.39996 1314.6 766.69995 1326 766.6C 1336.1 766.6 1336.8 766.8 1344.1 770.39996C 1351.7 774.1 1358 779.1 1358 781.39996C 1358 782.1 1356.2 784.3 1354.1 786.39996L1354.1 786.39996L1350.2 790.19995L1344.7999 786.19995C 1338.7999 781.69995 1333.7999 779.99994 1326.2 779.99994C 1320.2 779.99994 1312 781.7999 1312 783.0999C 1312 783.5999 1311.3 783.99994 1310.5 783.99994C 1308.5 783.99994 1301.8 790.19995 1300 793.69995C 1299.2 795.19995 1298 797.1 1297.3 797.7999C 1295.3 799.8999 1293.8 810.0999 1294.2001 818.5999C 1294.6001 825.2999 1295.2001 827.99994 1297.8 833.2999C 1306.6001 851.0999 1330.2001 856.5999 1345 844.0999L1345 844.0999L1349.7 840.0999L1354.5 844.99994L1359.2 849.7999L1353.8999 853.99994C 1343.9999 861.7999 1339.8999 863.2999 1327.4999 863.5999C 1321.4999 863.7999 1315.0999 863.49994 1313.2999 863.0999L1313.2999 863.0999L1313.3 863.1z" stroke="none" fill="#762E24" fill-rule="nonzero" />
        <path d="M1393.5 863.1C 1387.7 861.39996 1382.5 858.1 1376.3 852.1C 1375.5 851.39996 1373.5 848 1371.7001 844.6C 1368.7001 838.8 1368.5001 838 1368.5001 827C 1368.5001 816.7 1368.8002 815 1371.0001 810.6C 1379.0001 794.89996 1394.1001 787.5 1410.8002 791.3C 1421.9001 793.8 1428.5001 799.1 1434.0001 809.7C 1438.7001 818.8 1438.5001 835.10004 1433.7001 844.9C 1430.9 850.60004 1423.5001 857.9 1417.5001 860.9C 1412.4001 863.5 1399.1001 864.7 1393.5001 863.10004L1393.5001 863.10004L1393.5 863.1zM1410.7 849.89996C 1418.2999 847.1 1424.2 836.69995 1424.2 826.39996C 1424.2 822.99994 1423.7 819.39996 1423.1 818.39996C 1422.6 817.3 1421.4 814.89996 1420.5 812.99994C 1414.7 800.69995 1396.5 798.89996 1386.8 809.69995C 1384.5 812.19995 1381 822.39996 1381 826.6C 1381 836 1386.9 846.3 1394 849.39996C 1398.1 851.19995 1406.7 851.49994 1410.7 849.89996z" stroke="none" fill="#762E24" fill-rule="nonzero" />
        <path d="M1686 863.4C 1681.3 861.9 1676.1 858.30005 1673.5 854.7C 1669.5 849.10004 1668.7 839.4 1671.8 833.3C 1676.3 824.6 1683.3 822 1702.6001 822L1702.6001 822L1714.0001 822L1714.0001 817.3C 1714.0001 811.8 1711.5001 807.1 1707.3002 804.3C 1703.1002 801.5 1690.1002 801.89996 1683.5001 804.89996C 1680.8002 806.19995 1678.2001 807.8 1677.8002 808.39996C 1677.0001 809.6 1671.9001 798.99994 1672.7002 797.69995C 1673.9001 795.69995 1684.4001 791.99994 1692.1002 790.89996C 1699.4003 789.8 1701.5002 789.89996 1708.2002 791.39996C 1714.8002 792.89996 1716.6002 793.69995 1720.2002 797.3C 1727.4001 804.39996 1728.0002 807.39996 1728.0002 837.3L1728.0002 837.3L1728.0002 863L1722.0002 863L1716.0002 863L1716.0002 859.6C 1716.0002 854.6 1714.4003 854.3 1710.4003 858.3C 1708.2003 860.39996 1705.2003 862.2 1702.5002 862.89996C 1698.1002 863.99994 1688.9003 864.3 1686.0002 863.39996L1686.0002 863.39996L1686 863.4zM1702.8 852.5C 1711.9 849.3 1714 846.4 1714 837L1714 837L1714 831L1703 831C 1689.4 831 1685.5 832.5 1683.8 838.2C 1682.2001 843.5 1684.1001 849.7 1687.8 851.2C 1689.3 851.7 1691.2001 852.60004 1692 853C 1694.3 854.3 1698.1 854.1 1702.8 852.5z" stroke="none" fill="#762E24" fill-rule="nonzero" />
        <path d="M1455 827L1455 791L1461.5 791L1468 791L1468 795C 1468 797.2 1468.4 799 1469 799C 1469.5 799 1472 797.5 1474.5 795.6C 1485.1 787.39996 1502.9 789 1510.9 798.69995L1510.9 798.69995L1513.9 802.2999L1518.8 797.7999C 1526.5 790.99994 1537.4 788.49994 1547.3 791.3999C 1554.5 793.4999 1559.6001 797.9999 1562.9 804.9999C 1565.3 810.3999 1565.4 811.1999 1565.8 836.79987L1565.8 836.79987L1566.2001 862.9999L1559.2001 862.9999L1552.2001 862.9999L1551.8 838.79987C 1551.5 811.59985 1551 809.59985 1544.5 805.09985C 1541.5 803.09985 1540.1 802.79987 1534.7 803.1998C 1530.3999 803.39984 1527.7 804.09985 1526.6 805.2998C 1525.6 806.1998 1524.5 806.9998 1524.1 806.9998C 1523.7 806.9998 1522 809.39984 1520.4 812.2998L1520.4 812.2998L1517.5 817.4998L1517.2 840.2998L1516.7999 862.9998L1509.8999 862.9998L1502.9999 862.9998L1502.9999 839.0998C 1502.9999 825.8998 1502.5999 814.0998 1502.0999 812.7998C 1501.5999 811.4998 1499.8999 808.9998 1498.2998 807.0998C 1495.7998 804.0998 1494.5999 803.5998 1489.6998 803.19977C 1482.3998 802.5998 1480.1998 803.19977 1475.6998 807.29974C 1469.7998 812.49976 1468.9999 816.69977 1468.9999 841.69977L1468.9999 841.69977L1468.9999 862.99976L1461.9999 862.99976L1454.9999 862.99976L1454.9999 826.99976L1455 827z" stroke="none" fill="#762E24" fill-rule="nonzero" />
        <path d="M1751 827L1751 791L1757 791L1763 791L1763 794.5C 1763 799.4 1765.1 799.9 1769.9 796.1C 1780.7001 787.5 1798.9 788.69995 1808.2001 798.6C 1814.2001 804.89996 1815.0001 809.69995 1815.0001 838.3L1815.0001 838.3L1815.0001 863L1808.5001 863L1802.0001 863L1802.0001 839.9C 1802.0001 817.9 1801.9001 816.5 1799.8002 812.2C 1798.5001 809.7 1795.9001 806.60004 1793.8002 805.2C 1790.5001 803.10004 1789.2002 802.8 1783.2002 803.2C 1779.5002 803.4 1775.8002 804.10004 1775.0002 804.8C 1774.2002 805.5 1772.3003 806.89996 1770.8003 808C 1769.1003 809.3 1767.5002 812.2 1766.1003 816.5C 1764.3003 822.1 1764.0004 825.4 1764.0004 843L1764.0004 843L1764.0004 863L1757.5004 863L1751.0004 863L1751.0004 827L1751 827z" stroke="none" fill="#762E24" fill-rule="nonzero" />
        <path d="M579 859.4C 572.8 857.10004 569 854.7 566.6 851.60004C 564 848.2 560.1 840.60004 533.6 788.80005L533.6 788.80005L522 766.00006L531.4 766.00006L540.80005 766.00006L545.30005 774.80005C 556.4 796.30005 568.60004 820.2001 572.7001 828.50006C 578.2001 839.60004 579.4001 841.00006 583.6001 841.00006C 587.7001 841.00006 588.2001 840.30005 600.7001 815.50006C 605.7001 805.60004 613.50006 790.2001 618.1001 781.30005L618.1001 781.30005L626.3001 765.00006L635.6001 765.00006L644.9001 765.00006L643.3001 768.80005C 642.5001 770.80005 641.4001 773.00006 641.0001 773.50006C 640.3001 774.4001 613.70013 826.50006 605.40015 843.00006C 601.8002 850.30005 599.5001 853.00006 594.0001 856.50006C 590.20013 858.9001 581.90015 860.50006 579.0001 859.4001L579.0001 859.4001L579 859.4z" stroke="none" fill="#762E24" fill-rule="nonzero" />
        <path d="M81 858.3C 81 857.8 81.7 856.2 82.6 854.5C 84 851.8 85.7 847.7 92.2 831.5C 93.299995 828.8 95.1 824.5 96.2 822C 97.399994 819.5 99.1 815.1 100.1 812.1C 101.2 809.1 102.4 806.19995 102.799995 805.6C 103.299995 805 104.7 801.6 105.99999 798C 107.299995 794.4 108.69999 791.1 108.99999 790.5C 109.399994 790 110.899994 786.4 112.299995 782.5C 113.7 778.7 115.49999 774.2 116.399994 772.5C 117.2 770.9 118.299995 768.3 118.899994 766.8C 119.899994 764.1 120.2 764 127.399994 764L127.399994 764L134.79999 764L136.4 768.3C 137.2 770.6 139.79999 777 142.09999 782.5C 149.49998 800.3 153.2 809.4 155.7 816C 157 819.5 158.5 822.9 158.9 823.5C 159.4 824 160.29999 826.3 161 828.5C 161.7 830.7 163.3 834.8 164.6 837.5C 165.8 840.3 168 845.4 169.3 849C 170.7 852.6 172.1 856.3 172.5 857.3C 173.2 858.89996 172.6 859.1 166.1 858.8L166.1 858.8L158.90001 858.5L156.40001 852.5C 155.00002 849.2 153.1 844.4 152.20001 841.7L152.20001 841.7L150.6 837L127.200005 837.2L103.8 837.5L99.700005 848.3L95.700005 859L88.3 859C 84.3 859 81 858.7 81 858.3zM144.5 821.8C 144.1 820.5 143.2 818.2 142.5 816.5C 140.9 812.9 132.8 792 130.9 786.7C 129.4 782.3 127.399994 780.2 125.99999 781.60004C 125.49999 782.10004 123.09999 787.9 120.49999 794.50006C 117.99999 801.10004 114.59999 809.7001 112.899994 813.7001C 111.299995 817.6001 109.99999 821.6001 109.99999 822.4001C 109.99999 823.8001 112.299995 824.00006 127.59999 824.00006L127.59999 824.00006L145.09999 824.00006L144.49998 821.80005z" stroke="none" fill="#762E24" fill-rule="nonzero" />
        <path d="M344.7 854.9C 343.2 853.7 340.7 851.60004 339.2 850.10004C 334.40002 845.50006 319.80002 832.50006 318.6 831.80005C 318 831.50006 315.2 829.00006 312.4 826.30005C 309.6 823.7001 304.19998 818.80005 300.4 815.50006C 290 806.30005 282 799.2001 276.69998 794.30005C 268.8 786.80005 268.99997 786.2001 268.99997 823.50006L268.99997 823.50006L268.99997 856.00006L260.99997 856.00006L252.99997 856.00006L252.99997 814.10004C 252.99997 773.50006 253.09998 772.00006 255.09998 768.60004C 257.39996 764.60004 262.3 762.50006 266.59998 763.60004C 269.19998 764.30005 276.39996 770.00006 288.49997 781.00006C 293.79996 785.9001 303.09998 794.10004 311.39996 801.50006C 321.79996 810.60004 335.19995 822.60004 340.39996 827.30005C 342.09998 828.80005 344.19995 830.00006 345.19995 830.00006C 346.89996 830.00006 346.99994 828.00006 346.99994 797.50006L346.99994 797.50006L346.99994 765.00006L354.99994 765.00006L362.99994 765.00006L362.99994 807.60004L362.99994 850.2L359.59995 853.60004C 356.79996 856.4 355.49994 857.00006 351.89993 857.00006C 349.09995 856.9001 346.49994 856.2001 344.69992 854.9001L344.69992 854.9001L344.7 854.9z" stroke="none" fill="#762E24" fill-rule="nonzero" />
        <path d="M874.4 854.8C 872.80005 853.5 871 852.1 870.4 851.5C 869.80005 851 863.80005 845.6 857 839.5C 850.2 833.5 837.6 822.2 829.1 814.5C 807.3 794.9 801.5 790 800.19995 790C 799.2999 790 798.99994 798.4 798.99994 823L798.99994 823L798.99994 856L790.49994 856L781.99994 856L781.99994 815.8C 781.99994 792.2 782.39996 774 782.99994 771.89996C 784.19995 767.6 787.39996 764.39996 791.5999 763.6C 796.8999 762.39996 797.2999 762.69995 817.49994 780.69995C 820.2999 783.1 823.89996 786.39996 825.49994 787.89996C 827.19995 789.39996 831.5999 793.3 835.39996 796.6C 839.19995 799.8 843.3 803.39996 844.49994 804.5C 845.69995 805.6 849.99994 809.4 853.99994 813C 858.0999 816.6 863.99994 821.9 867.19995 824.8C 870.49994 827.7 873.69995 829.89996 874.2999 829.7C 875.19995 829.4 875.5999 820.9 875.7999 797.2L875.7999 797.2L875.99994 765L884.49994 765L892.99994 765L892.99994 806.5C 892.99994 851.2 892.89996 851.8 887.7999 855.4C 884.49994 857.80005 877.7999 857.4 874.3999 854.80005L874.3999 854.80005L874.4 854.8z" stroke="none" fill="#762E24" fill-rule="nonzero" />
        <path d="M948.8 820.3L948.5 784.5L926.8 784.2L905 784L905 774.5L905 765L958.5 765L1012 765L1012 774.5L1012 784L990 784L968 784L968 820L968 856L958.5 856L949 856L948.8 820.3z" stroke="none" fill="#762E24" fill-rule="nonzero" />
        <path d="M1024 810.5L1024 765L1032.5 765L1041 765L1041 810.5L1041 856L1032.5 856L1024 856L1024 810.5z" stroke="none" fill="#762E24" fill-rule="nonzero" />
        <path d="M406 853.6C 393.5 849.6 381.5 836.6 378.5 824C 373.3 801.5 380.7 781 398 770.5C 405.9 765.7 411.9 765 448 765C 488.6 765 491.8 765.6 503 773.8C 519 785.6 524.3 811.6 514.9 831.6C 511.40002 839 501.30002 850 498.10004 850C 497.60004 850 496.50003 850.6 495.80005 851.3C 492.50006 854.5 485.20004 855 447.20004 854.89996C 421.90005 854.8 408.30005 854.39996 406.00003 853.6L406.00003 853.6L406 853.6zM485.4 835.89996C 489.6 834.69995 490.4 834.19995 495.4 829.3C 507.4 817.7 504.4 794.89996 489.8 786.89996L489.8 786.89996L485.5 784.49994L448 784.49994C 411.5 784.49994 410.4 784.5999 406.5 786.69995C 394.6 793.1 389.8 808.6 395.5 821.69995C 396.9 824.89996 399.1 828.39996 400.3 829.49994C 406 834.49994 407.09998 835.2999 410.19998 835.99994C 415.4 837.19995 480.89996 837.19995 485.39996 835.89996z" stroke="none" fill="#762E24" fill-rule="nonzero" />
        <path d="M667.5 853.6C 660.7 851.1 653.9 843.69995 650.9 835.69995C 648.7 829.89996 648.5 828.1 648.5 809.49994L648.5 809.49994L648.5 789.49994L651.6 782.99994C 654.69995 776.39996 661.89996 768.7999 666.8 766.89996C 668.1 766.39996 691.8 765.99994 719.6 765.99994L719.6 765.99994L770 765.99994L770 775.49994L770 784.99994L721.2 784.99994L672.4 784.99994L669.10004 788.39996C 666.60004 790.99994 665.60004 792.99994 665.30005 796.39996L665.30005 796.39996L664.7001 800.99994L714.9001 800.99994L765.00006 800.99994L765.00006 810.49994L765.00006 819.99994L714.9001 819.99994L664.7001 819.99994L665.2001 824.39996C 665.50006 826.8 666.2001 829.39996 666.9001 830.1C 667.50006 830.89996 668.9001 832.6 669.9001 834L669.9001 834L671.8001 836.5L720.9001 836.8L770.00006 837.1L770.00006 846L770.00006 855L720.30005 854.9C 685.60004 854.80005 669.60004 854.4 667.50006 853.60004L667.50006 853.60004L667.5 853.6z" stroke="none" fill="#762E24" fill-rule="nonzero" />
        <path d="M1698 663.4C 1636.4 659.7 1582.9 641.60004 1531.5 607C 1523.1 601.4 1498.5 582.9 1493.7 578.5C 1490.2999 575.4 1488.7 577.9 1510.8999 552.1L1510.8999 552.1L1528.2999 532L1530.9999 534.2C 1561.7999 559.7 1578.6998 571.3 1602.9999 583.4C 1634.6998 599.2 1663.5999 606.60004 1702.7999 609.10004C 1743.9999 611.80005 1778.3999 604.30005 1804.9999 586.80005C 1808.5999 584.50006 1815.5999 578.50006 1820.4999 573.50006C 1837.5999 556.4001 1844.9999 537.60004 1844.9999 512.2001C 1844.7999 471.10007 1825.6998 447.4001 1777.2999 428.10007C 1757.7999 420.40005 1736.4999 414.40005 1701.9999 407.00006C 1653.0999 396.50006 1618.6998 385.80005 1593.8999 373.50006C 1553.5999 353.30005 1530.2999 328.90005 1518.9999 295.20007C 1514.0999 280.50006 1512.5999 269.70007 1512.5999 249.00008C 1512.5999 222.50008 1516.0999 207.50008 1527.2998 185.60007C 1534.0999 172.30006 1542.1998 161.50006 1554.3998 149.50006C 1567.6998 136.50006 1580.1998 127.60006 1597.4998 119.00006C 1628.1997 103.800064 1658.8998 97.00006 1696.9998 97.00006C 1751.0997 97.00006 1796.5997 108.00006 1839.4998 131.20006C 1854.8998 139.60005 1876.5997 153.80006 1887.1997 162.60005L1887.1997 162.60005L1889.9998 164.90005L1872.9998 186.90005C 1863.5997 199.00006 1855.4998 209.20006 1854.9998 209.50006C 1854.4998 209.80006 1851.3998 208.20006 1848.2998 205.80006C 1819.5999 184.00006 1790.5999 169.00006 1760.9998 160.50006C 1735.1997 153.10007 1704.0997 149.70006 1679.6997 151.80006C 1649.5997 154.30006 1626.9998 162.10007 1607.6997 176.60007C 1596.7997 184.70007 1588.1997 195.00006 1582.4998 206.50006C 1575.7998 219.90005 1574.5997 225.80006 1574.4998 243.50006C 1574.4998 261.60007 1576.2998 270.50006 1582.2998 282.30005C 1587.3998 292.30005 1599.7998 305.40005 1610.8998 312.50006C 1632.8998 326.70007 1669.4998 339.60007 1716.9998 350.00006C 1761.7998 359.70007 1790.3998 368.10007 1814.9998 378.80005C 1851.9998 394.70004 1879.2998 417.80005 1893.4998 445.20004C 1901.5997 460.70004 1905.3998 474.20004 1907.1997 493.70004C 1910.2997 527.60004 1902.2997 560.30005 1884.1997 587.50006C 1876.0997 599.7001 1858.2997 617.80005 1845.4998 626.80005C 1819.2998 645.30005 1788.4998 656.80005 1752.4998 661.50006C 1740.4998 663.00006 1710.1997 664.10004 1697.9998 663.4001L1697.9998 663.4001L1698 663.4z" stroke="none" fill="#762E24" fill-rule="nonzero" />
        <path d="M89 381.5L89 101L118.8 101L148.5 101L288.2 278.8C 365.1 376.5 444.7 477.8 465.2 503.9L465.2 503.9L502.5 551.2L502.8 326.1L503 101L533.5 101L564 101L564 381.5L564 662L539.3 662L514.5 662L373 482.4C 295.2 383.5 213.5 279.9 191.5 252L191.5 252L151.5 201.2L151.2 431.59998L151 662L120 662L89 662L89 381.5z" stroke="none" fill="#762E24" fill-rule="nonzero" />
        <path d="M860 381.5L860 100.899994L980.3 101.299995C 1111.4 101.7 1107.2 101.49999 1135 107.6C 1218 125.899994 1270.2 179.9 1279 256.5C 1280.4 269.2 1280.2 292.6 1278.5 305.1C 1269.4 373.90002 1224.6 425 1152.5 448.90002C 1136.3 454.2 1124.8 456.90002 1104.5 460.30002C 1092.1 462.30002 1087.3 462.40002 1007.3 462.7L1007.3 462.7L923 463.1L923 562.6L923 662L891.5 662L860 662L860 381.5zM1084 405.9C 1144.7 400.4 1191.4 370.9 1208.1 327.59998C 1214.7999 310.19998 1215.5 305.8 1215.4 280.49997C 1215.4 258.99997 1215.2001 256.89996 1212.8 247.89996C 1207.1001 226.79996 1198.3 211.39996 1183.8 197.39996C 1163.6001 177.69997 1138.9 166.69997 1101 160.39996C 1091.8 158.79996 1080.5 158.59996 1006.8 158.29996L1006.8 158.29996L923 157.89996L923 282.39996L923 406.99997L997.8 406.99997C 1042 406.99997 1077.2 406.59998 1084 405.89996z" stroke="none" fill="#762E24" fill-rule="nonzero" />
	</g>
</g>
</svg>